<svg xmlns="http://www.w3.org/2000/svg" xmlns:xlink="http://www.w3.org/1999/xlink" viewBox="0 0 2000 2000"><defs><style>.cls-1{fill:url(#linear-gradient);}.cls-2{fill:#fff;}</style><linearGradient id="linear-gradient" x1="292.89" y1="292.89" x2="1707.11" y2="1707.11" gradientUnits="userSpaceOnUse"><stop offset="0.03" stop-color="#f95bff"/><stop offset="0.1" stop-color="#d147e9"/><stop offset="0.19" stop-color="#ab34d4"/><stop offset="0.28" stop-color="#8b24c3"/><stop offset="0.38" stop-color="#7117b4"/><stop offset="0.49" stop-color="#5c0da9"/><stop offset="0.61" stop-color="#4e05a1"/><stop offset="0.76" stop-color="#46019c"/><stop offset="1" stop-color="#43009b"/></linearGradient></defs><g id="Layer_5" data-name="Layer 5"><circle class="cls-1" cx="1000" cy="1000" r="1000"/><path class="cls-2" d="M1401,1101.07c98.31-71.16,155.36-184.17,153.54-306.23-3-201.73-174.22-365.84-381.64-365.84h-4l-68.48,255.6h52.29a115.9,115.9,0,1,1,0,231.8H1038.29L969.81,1172H1137l185.87,345h307.26Z"/><path class="cls-2" d="M720.09,1172H879.87l68.49-255.6H720.09V684.6h290.39L1079,429H559.63A122.54,122.54,0,0,0,437.09,551.54v842.92A122.54,122.54,0,0,0,559.63,1517H720.09Z"/></g></svg>